<svg xmlns="http://www.w3.org/2000/svg" style="vertical-align:middle;fill:#666" fill="currentColor" viewBox="0 0 40 40" preserveAspectRatio="xMidYMid meet" width="50" height="50"><g><path d="m 31 19.3 q 0 0.3 -0.2 0.5 l -10.4 10.4 q -0.3 0.2 -0.5 0.2 t -0.6 -0.2 l -10.4 -10.4 q -0.2 -0.2 -0.2 -0.5 t 0.2 -0.5 l 1.2 -1.1 q 0.2 -0.3 0.5 -0.3 t 0.5 0.3 l 8.8 8.7 l 8.7 -8.7 q 0.3 -0.3 0.5 -0.3 t 0.6 0.3 l 1.1 1.1 q 0.2 0.2 0.2 0.5 Z m 0 -8.6 q 0 0.3 -0.2 0.5 l -10.4 10.4 q -0.3 0.3 -0.5 0.3 t -0.6 -0.3 l -10.4 -10.4 q -0.2 -0.2 -0.2 -0.5 t 0.2 -0.5 l 1.2 -1.1 q 0.2 -0.2 0.5 -0.2 t 0.5 0.2 l 8.8 8.8 l 8.7 -8.8 q 0.3 -0.2 0.5 -0.2 t 0.6 0.2 l 1.1 1.1 q 0.2 0.2 0.2 0.5 Z" /></g></svg>