<svg xmlns="http://www.w3.org/2000/svg" viewBox="0 0 128 128">
<path class="cls-1" d="M 117.29 98.1 L 66.24 127 V 104.49 L 98 87 L 117.29 98.1 Z m 3.5 -3.16 V 34.55 L 102.11 45.35 V 84.16 l 18.67 10.77 Z M 10.71 98.1 l 51 28.88 V 104.49 L 29.94 87 Z m -3.5 -3.16 V 34.55 L 25.89 45.35 V 84.16 Z m 2.19 -64.3 L 61.76 1 V 22.76 L 28.21 41.21 l -0.27 0.15 Z m 109.18 0 L 66.24 1 V 22.76 L 99.79 41.2 l 0.27 0.15 l 18.54 -10.71 Z" /><path xmlns="http://www.w3.org/2000/svg" class="cls-2" d="M 61.76 99.37 L 30.37 82.1 V 47.92 L 61.76 66 Z m 4.48 0 L 97.63 82.12 V 47.92 L 66.24 66 Z M 32.5 44 L 64 26.66 L 95.5 44 L 64 62.16 L 32.5 44 Z" />
</svg> 