<svg xmlns="http://www.w3.org/2000/svg" viewBox="0 0 128 128">
<path fill="#1572b6" d="M 18.814 114.123 l -10.054 -112.771 h 110.48 l -10.064 112.754 l -45.243 12.543 l -45.119 -12.526 Z" /><path xmlns="http://www.w3.org/2000/svg" fill="#33a9dc" d="M 64.001 117.062 l 36.559 -10.136 l 8.601 -96.354 h -45.16 v 106.49 Z" /><path xmlns="http://www.w3.org/2000/svg" fill="#fff" d="M 64.001 51.429 h 18.302 l 1.264 -14.163 h -19.566 v -13.831 h 34.682 l -0.332 3.711 l -3.4 38.114 h -30.95 v -13.831 Z" /><path xmlns="http://www.w3.org/2000/svg" fill="#ebebeb" d="M 64.083 87.349 l -0.061 0.018 l -15.403 -4.159 l -0.985 -11.031 h -13.882 l 1.937 21.717 l 28.331 7.863 l 0.063 -0.018 v -14.39 Z" /><path xmlns="http://www.w3.org/2000/svg" fill="#fff" d="M 81.127 64.675 l -1.666 18.522 l -15.426 4.164 v 14.39 l 28.354 -7.858 l 0.208 -2.337 l 2.406 -26.881 h -13.876 Z" /><path xmlns="http://www.w3.org/2000/svg" fill="#ebebeb" d="M 64.048 23.435 v 13.831 h -33.408 l -0.277 -3.108 l -0.63 -7.012 l -0.331 -3.711 h 34.646 Z M 64.001 51.431 v 13.831 h -15.209 l -0.277 -3.108 l -0.631 -7.012 l -0.33 -3.711 h 16.447 Z" />
</svg> 