<svg xmlns="http://www.w3.org/2000/svg" viewBox="0 0 128 128">
<path fill="#f34f29" d="M 124.737 58.378 l -55.116 -55.114 c -3.172 -3.174 -8.32 -3.174 -11.497 0 l -11.444 11.446 l 14.518 14.518 c 3.375 -1.139 7.243 -0.375 9.932 2.314 c 2.703 2.706 3.461 6.607 2.294 9.993 l 13.992 13.993 c 3.385 -1.167 7.292 -0.413 9.994 2.295 c 3.78 3.777 3.78 9.9 0 13.679 c -3.78 3.78 -9.901 3.78 -13.683 0 c -2.842 -2.844 -3.545 -7.019 -2.105 -10.521 l -13.048 -13.048 l -0.002 34.341 c 0.922 0.455 1.791 1.063 2.559 1.828 c 3.778 3.777 3.778 9.898 0 13.683 c -3.779 3.777 -9.904 3.777 -13.679 0 c -3.778 -3.784 -3.778 -9.905 0 -13.683 c 0.934 -0.933 2.014 -1.638 3.167 -2.11 v -34.659 c -1.153 -0.472 -2.231 -1.172 -3.167 -2.111 c -2.862 -2.86 -3.551 -7.06 -2.083 -10.576 l -14.313 -14.313 l -37.792 37.79 c -3.175 3.177 -3.175 8.325 0 11.5 l 55.117 55.114 c 3.174 3.174 8.32 3.174 11.499 0 l 54.858 -54.858 c 3.174 -3.176 3.174 -8.327 -0.001 -11.501 Z" />
</svg> 