<svg xmlns="http://www.w3.org/2000/svg" viewBox="0 0 128 128">
<path fill="#0074bd" d="M 47.617 98.12 s -4.767 2.774 3.397 3.71 c 9.892 1.13 14.947 0.968 25.845 -1.092 c 0 0 2.871 1.795 6.873 3.351 c -24.439 10.47 -55.308 -0.607 -36.115 -5.969 Z M 44.629 84.455 s -5.348 3.959 2.823 4.805 c 10.567 1.091 18.91 1.18 33.354 -1.6 c 0 0 1.993 2.025 5.132 3.131 c -29.542 8.64 -62.446 0.68 -41.309 -6.336 Z" /><path xmlns="http://www.w3.org/2000/svg" fill="#ea2d2e" d="M 69.802 61.271 c 6.025 6.935 -1.58 13.17 -1.58 13.17 s 15.289 -7.891 8.269 -17.777 c -6.559 -9.215 -11.587 -13.792 15.635 -29.58 c 0 0.001 -42.731 10.67 -22.324 34.187 Z" /><path xmlns="http://www.w3.org/2000/svg" fill="#0074bd" d="M 102.123 108.229 s 3.529 2.91 -3.888 5.159 c -14.102 4.272 -58.706 5.56 -71.094 0.171 c -4.451 -1.938 3.899 -4.625 6.526 -5.192 c 2.739 -0.593 4.303 -0.485 4.303 -0.485 c -4.953 -3.487 -32.013 6.85 -13.743 9.815 c 49.821 8.076 90.817 -3.637 77.896 -9.468 Z M 49.912 70.294 s -22.686 5.389 -8.033 7.348 c 6.188 0.828 18.518 0.638 30.011 -0.326 c 9.39 -0.789 18.813 -2.474 18.813 -2.474 s -3.308 1.419 -5.704 3.053 c -23.042 6.061 -67.544 3.238 -54.731 -2.958 c 10.832 -5.239 19.644 -4.643 19.644 -4.643 Z M 90.609 93.041 c 23.421 -12.167 12.591 -23.86 5.032 -22.285 c -1.848 0.385 -2.677 0.72 -2.677 0.72 s 0.688 -1.079 2 -1.543 c 14.953 -5.255 26.451 15.503 -4.823 23.725 c 0 -0.002 0.359 -0.327 0.468 -0.617 Z" /><path xmlns="http://www.w3.org/2000/svg" fill="#ea2d2e" d="M 76.491 1.587 s 12.968 12.976 -12.303 32.923 c -20.266 16.006 -4.621 25.13 -0.007 35.559 c -11.831 -10.673 -20.509 -20.07 -14.688 -28.815 c 8.548 -12.834 32.229 -19.059 26.998 -39.667 Z" /><path xmlns="http://www.w3.org/2000/svg" fill="#0074bd" d="M 52.214 126.021 c 22.476 1.437 57 -0.8 57.817 -11.436 c 0 0 -1.571 4.032 -18.577 7.231 c -19.186 3.612 -42.854 3.191 -56.887 0.874 c 0 0.001 2.875 2.381 17.647 3.331 Z" />
</svg> 