<svg xmlns="http://www.w3.org/2000/svg" viewBox="0 0 128 128">
<path fill="#5b4282" d="M 75.701 65.603 c -2.334 -0.768 -5.694 -0.603 -10.08 -0.603 h -17.621 v 23 h 18.844 c 2.944 0 5.012 -0.315 6.203 -0.535 c 2.099 -0.376 3.854 -1.104 5.264 -1.982 c 1.409 -0.876 2.568 -2.205 3.478 -3.881 c 0.908 -1.676 1.363 -3.637 1.363 -5.83 c 0 -2.568 -0.658 -4.54 -1.975 -6.436 c -1.316 -1.896 -3.141 -2.965 -5.476 -3.733 Z M 73.282 55.087 c 2.317 -0.688 4.064 -1.89 5.239 -3.487 c 1.176 -1.598 1.763 -3.631 1.763 -6.044 c 0 -2.286 -0.549 -4.314 -1.646 -6.054 s -2.662 -2.413 -4.699 -3.056 c -2.037 -0.641 -5.53 -0.446 -10.48 -0.446 h -15.459 v 20 h 16.587 c 4.042 0 6.939 -0.38 8.695 -0.913 Z M 126 18.625 c 0 -9.182 -7.443 -16.625 -16.625 -16.625 h -91.75 c -9.182 0 -16.625 7.443 -16.625 16.625 v 91.75 c 0 9.182 7.443 16.625 16.625 16.625 h 91.75 c 9.182 0 16.625 -7.443 16.625 -16.625 v -91.75 Z m -35.447 66.12 c -1.362 2.773 -3.047 4.911 -5.052 6.415 c -2.006 1.504 -4.521 2.78 -7.544 3.548 c -3.022 0.769 -6.728 1.292 -11.113 1.292 h -27.844 v -69 h 27.42 c 5.264 0 9.485 0.609 12.665 2.002 c 3.181 1.395 5.671 3.497 7.474 6.395 c 1.801 2.898 2.702 5.907 2.702 9.071 c 0 2.945 -0.8 5.708 -2.397 8.308 c -1.598 2.602 -4.011 4.694 -7.237 6.292 c 4.166 1.222 7.37 3.304 9.61 6.248 c 2.24 2.945 3.36 6.422 3.36 10.432 c 0 3.227 -0.681 6.225 -2.044 8.997 Z" />
</svg> 