<svg xmlns="http://www.w3.org/2000/svg" viewBox="0 0 128 128">
<path fill="url(#a)" d="M 63.391 1.988 c -4.222 0.02 -8.252 0.379 -11.8 1.007 c -10.45 1.846 -12.346 5.71 -12.346 12.837 v 9.411 h 24.693 v 3.137 h -33.961 c -7.176 0 -13.46 4.313 -15.426 12.521 c -2.268 9.405 -2.368 15.275 0 25.096 c 1.755 7.311 5.947 12.519 13.124 12.519 h 8.491 v -11.282 c 0 -8.151 7.051 -15.34 15.426 -15.34 h 24.665 c 6.866 0 12.346 -5.654 12.346 -12.548 v -23.513 c 0 -6.693 -5.646 -11.72 -12.346 -12.837 c -4.244 -0.706 -8.645 -1.027 -12.866 -1.008 Z m -13.354 7.569 c 2.55 0 4.634 2.117 4.634 4.721 c 0 2.593 -2.083 4.69 -4.634 4.69 c -2.56 0 -4.633 -2.097 -4.633 -4.69 c -0.001 -2.604 2.073 -4.721 4.633 -4.721 Z" /><path xmlns="http://www.w3.org/2000/svg" fill="url(#b)" d="M 91.682 28.38 v 10.966 c 0 8.5 -7.208 15.655 -15.426 15.655 h -24.665 c -6.756 0 -12.346 5.783 -12.346 12.549 v 23.515 c 0 6.691 5.818 10.628 12.346 12.547 c 7.816 2.297 15.312 2.713 24.665 0 c 6.216 -1.801 12.346 -5.423 12.346 -12.547 v -9.412 h -24.664 v -3.138 h 37.012 c 7.176 0 9.852 -5.005 12.348 -12.519 c 2.578 -7.735 2.467 -15.174 0 -25.096 c -1.774 -7.145 -5.161 -12.521 -12.348 -12.521 h -9.268 Z m -13.873 59.547 c 2.561 0 4.634 2.097 4.634 4.692 c 0 2.602 -2.074 4.719 -4.634 4.719 c -2.55 0 -4.633 -2.117 -4.633 -4.719 c 0 -2.595 2.083 -4.692 4.633 -4.692 Z" /><path xmlns="http://www.w3.org/2000/svg" opacity="0.444" fill="url(#c)" d="M 97.309 119.597 c 0 3.543 -14.816 6.416 -33.091 6.416 c -18.276 0 -33.092 -2.873 -33.092 -6.416 c 0 -3.544 14.815 -6.417 33.092 -6.417 c 18.275 0 33.091 2.872 33.091 6.417 Z" enable-background="new" />
</svg> 