<svg xmlns="http://www.w3.org/2000/svg" viewBox="0 0 128 128">
<path fill="#e44d26" d="M 19.037 113.876 l -10.005 -112.215 h 109.936 l -10.016 112.198 l -45.019 12.48 Z" /><path xmlns="http://www.w3.org/2000/svg" fill="#f16529" d="M 64 116.8 l 36.378 -10.086 l 8.559 -95.878 h -44.937 Z" /><path xmlns="http://www.w3.org/2000/svg" fill="#ebebeb" d="M 64 52.455 h -18.212 l -1.258 -14.094 h 19.47 v -13.762 h -34.511 l 0.33 3.692 l 3.382 37.927 h 30.799 Z M 64 88.198 l -0.061 0.017 l -15.327 -4.14 l -0.979 -10.975 h -13.817 l 1.928 21.609 l 28.193 7.826 l 0.063 -0.017 Z" /><path xmlns="http://www.w3.org/2000/svg" fill="#fff" d="M 63.952 52.455 v 13.763 h 16.947 l -1.597 17.849 l -15.35 4.143 v 14.319 l 28.215 -7.82 l 0.207 -2.325 l 3.234 -36.233 l 0.335 -3.696 h -3.708 Z M 63.952 24.599 v 13.762 h 33.244 l 0.276 -3.092 l 0.628 -6.978 l 0.329 -3.692 Z" />
</svg>