<svg xmlns="http://www.w3.org/2000/svg" viewBox="0 0 128 128">
<path fill="#d26383" d="M 115.4 30.7 l -48.3 -27.8 c -0.8 -0.5 -1.9 -0.7 -3.1 -0.7 c -1.2 0 -2.3 0.3 -3.1 0.7 l -48 27.9 c -1.7 1 -2.9 3.5 -2.9 5.4 v 55.7 c 0 1.1 0.2 2.4 1 3.5 l 106.8 -62 c -0.6 -1.2 -1.5 -2.1 -2.4 -2.7 Z" /><path xmlns="http://www.w3.org/2000/svg" fill="#9c033a" d="M 10.7 95.3 c 0.5 0.8 1.2 1.5 1.9 1.9 l 48.2 27.9 c 0.8 0.5 1.9 0.7 3.1 0.7 c 1.2 0 2.3 -0.3 3.1 -0.7 l 48 -27.9 c 1.7 -1 2.9 -3.5 2.9 -5.4 v -55.7 c 0 -0.9 -0.1 -1.9 -0.6 -2.8 l -106.6 62 Z" /><path xmlns="http://www.w3.org/2000/svg" fill="#fff" d="M 85.3 76.1 c -4.2 7.4 -12.2 12.4 -21.3 12.4 c -13.5 0 -24.5 -11 -24.5 -24.5 s 11 -24.5 24.5 -24.5 c 9.1 0 17.1 5 21.3 12.5 l 13 -7.5 c -6.8 -11.9 -19.6 -20 -34.3 -20 c -21.8 0 -39.5 17.7 -39.5 39.5 s 17.7 39.5 39.5 39.5 c 14.6 0 27.4 -8 34.2 -19.8 l -12.9 -7.6 Z" /><path xmlns="http://www.w3.org/2000/svg" d="M 82.1 61.8 h 5.2 v -5.3 h 4.4 v 5.3 h 5.3 v 4.4 h -5.3 v 5.2 h -4.4 v -5.2 h -5.2 v -4.4 Z M 100.6 61.8 h 5.2 v -5.3 h 4.4 v 5.3 h 5.3 v 4.4 h -5.3 v 5.2 h -4.4 v -5.2 h -5.2 v -4.4 Z" />
</svg> 