<svg xmlns="http://www.w3.org/2000/svg" width="27" height="21" fill="none" style=""><rect id="backgroundrect" width="100%" height="100%" x="0" y="0" fill="none" stroke="none" class="" style=""/>


<g class="currentLayer" style=""><title>Layer 1</title><path fill-rule="evenodd" clip-rule="evenodd" d="M11.237794163355614,5.594145258537517 C11.237794163355614,5.7419389696656005 11.228476864840552,5.887907579895287 11.210318091843869,6.031646607405867 C11.901513361613263,5.843404714205511 12.635278283861771,5.742126412460582 13.395600826580736,5.742126412460582 C14.155923369299712,5.742126412460582 14.88968829154822,5.843404714205511 15.580850364292026,6.031646607405867 C15.562702656970545,5.887907579895287 15.553407489805874,5.7419389696656005 15.553407489805874,5.594145258537517 C15.553407489805874,3.3330129574139438 17.733234846671113,1.5000000000000004 20.42230457605747,1.5000000000000004 C23.11137430544385,1.5000000000000004 25.29120166230908,3.3330129574139438 25.29120166230908,5.594145258537517 C25.29120166230908,7.8552775596611175 23.11137430544385,9.688290517075075 20.42230457605747,9.688290517075075 C20.353586733090154,9.688290517075075 20.285200860378698,9.687096802433418 20.21714695792314,9.684719238560392 C20.63343765879765,10.51430158745296 20.864931583898528,11.43367890054604 20.864931583898528,12.401278338997523 C20.864931583898528,16.079004630395595 17.520773882907402,19.060430265534464 13.395600826580736,19.060430265534464 C9.27040563890369,19.060430265534464 5.926270069262955,16.079004630395595 5.926270069262955,12.401278338997523 C5.926270069262955,11.43367890054604 6.157741863013431,10.51430158745296 6.574010432537549,9.684719238560392 C6.505989727107581,9.687096802433418 6.437614920071336,9.688290517075075 6.368897077104013,9.688290517075075 C3.6798826760936336,9.688290517075075 1.4999999908524204,7.8552775596611175 1.4999999908524204,5.594145258537517 C1.4999999908524204,3.3330129574139438 3.6798826760936336,1.5000000000000004 6.368897077104013,1.5000000000000004 C9.057911478114404,1.5000000000000004 11.237794163355614,3.3330129574139438 11.237794163355614,5.594145258537517 z" fill="#ffffff" id="svg_2" class="" fill-opacity="1" stroke="#000000" stroke-opacity="1" stroke-width="3"/></g></svg>